<svg id="visual" viewBox="0 0 900 900" width="900" height="900" xmlns="http://www.w3.org/2000/svg" xmlns:xlink="http://www.w3.org/1999/xlink" version="1.1"><g stroke-width="1" stroke-linejoin="bevel"><path d="M462 416L428 338L414 415Z" fill="#071620" stroke="#071620"></path><path d="M428 338L327 374L414 415Z" fill="#25343c" stroke="#25343c"></path><path d="M330 483L412 491L414 415Z" fill="#202f38" stroke="#202f38"></path><path d="M414 415L412 491L462 416Z" fill="#25343c" stroke="#25343c"></path><path d="M412 491L511 494L462 416Z" fill="#071620" stroke="#071620"></path><path d="M462 416L538 274L428 338Z" fill="#2a3941" stroke="#2a3941"></path><path d="M596 409L538 274L462 416Z" fill="#1b2a33" stroke="#1b2a33"></path><path d="M428 338L270 269L327 374Z" fill="#00101c" stroke="#00101c"></path><path d="M327 374L330 483L414 415Z" fill="#1b2a33" stroke="#1b2a33"></path><path d="M566 477L596 409L462 416Z" fill="#00101c" stroke="#00101c"></path><path d="M511 494L566 477L462 416Z" fill="#16252e" stroke="#16252e"></path><path d="M538 274L474 197L428 338Z" fill="#202f38" stroke="#202f38"></path><path d="M596 409L602 287L538 274Z" fill="#34444b" stroke="#34444b"></path><path d="M602 173L512 138L474 197Z" fill="#16252e" stroke="#16252e"></path><path d="M439 165L270 269L428 338Z" fill="#0d1b25" stroke="#0d1b25"></path><path d="M327 374L210 373L330 483Z" fill="#2a3941" stroke="#2a3941"></path><path d="M270 269L239 314L327 374Z" fill="#1b2a33" stroke="#1b2a33"></path><path d="M512 138L439 165L474 197Z" fill="#1b2a33" stroke="#1b2a33"></path><path d="M474 197L439 165L428 338Z" fill="#202f38" stroke="#202f38"></path><path d="M364 606L472 597L412 491Z" fill="#25343c" stroke="#25343c"></path><path d="M412 491L472 597L511 494Z" fill="#202f38" stroke="#202f38"></path><path d="M511 494L635 627L566 477Z" fill="#16252e" stroke="#16252e"></path><path d="M439 165L267 230L270 269Z" fill="#2f3f46" stroke="#2f3f46"></path><path d="M270 269L189 220L239 314Z" fill="#1b2a33" stroke="#1b2a33"></path><path d="M139 364L210 373L239 314Z" fill="#202f38" stroke="#202f38"></path><path d="M239 314L210 373L327 374Z" fill="#2a3941" stroke="#2a3941"></path><path d="M298 610L364 606L330 483Z" fill="#11202a" stroke="#11202a"></path><path d="M330 483L364 606L412 491Z" fill="#202f38" stroke="#202f38"></path><path d="M596 409L678 370L602 287Z" fill="#00101c" stroke="#00101c"></path><path d="M705 479L678 370L596 409Z" fill="#11202a" stroke="#11202a"></path><path d="M705 479L596 409L566 477Z" fill="#2f3f46" stroke="#2f3f46"></path><path d="M210 373L230 520L330 483Z" fill="#16252e" stroke="#16252e"></path><path d="M602 173L538 274L602 287Z" fill="#1b2a33" stroke="#1b2a33"></path><path d="M602 173L474 197L538 274Z" fill="#34444b" stroke="#34444b"></path><path d="M731 216L602 173L602 287Z" fill="#00101c" stroke="#00101c"></path><path d="M230 520L298 610L330 483Z" fill="#071620" stroke="#071620"></path><path d="M635 627L705 479L566 477Z" fill="#25343c" stroke="#25343c"></path><path d="M364 606L474 662L472 597Z" fill="#16252e" stroke="#16252e"></path><path d="M472 597L635 627L511 494Z" fill="#34444b" stroke="#34444b"></path><path d="M364 661L474 662L364 606Z" fill="#11202a" stroke="#11202a"></path><path d="M298 610L364 661L364 606Z" fill="#202f38" stroke="#202f38"></path><path d="M512 138L400 89L439 165Z" fill="#2f3f46" stroke="#2f3f46"></path><path d="M439 165L400 89L267 230Z" fill="#0d1b25" stroke="#0d1b25"></path><path d="M479 0L400 89L512 138Z" fill="#1b2a33" stroke="#1b2a33"></path><path d="M267 230L189 220L270 269Z" fill="#202f38" stroke="#202f38"></path><path d="M210 373L95 477L230 520Z" fill="#11202a" stroke="#11202a"></path><path d="M217 139L189 220L267 230Z" fill="#25343c" stroke="#25343c"></path><path d="M123 287L139 364L239 314Z" fill="#071620" stroke="#071620"></path><path d="M764 429L734 284L678 370Z" fill="#0d1b25" stroke="#0d1b25"></path><path d="M678 370L734 284L602 287Z" fill="#25343c" stroke="#25343c"></path><path d="M474 662L635 627L472 597Z" fill="#2f3f46" stroke="#2f3f46"></path><path d="M311 61L217 139L267 230Z" fill="#16252e" stroke="#16252e"></path><path d="M189 220L123 287L239 314Z" fill="#1b2a33" stroke="#1b2a33"></path><path d="M814 481L764 429L705 479Z" fill="#1b2a33" stroke="#1b2a33"></path><path d="M705 479L764 429L678 370Z" fill="#00101c" stroke="#00101c"></path><path d="M95 236L123 287L189 220Z" fill="#11202a" stroke="#11202a"></path><path d="M804 178L731 216L734 284Z" fill="#11202a" stroke="#11202a"></path><path d="M734 284L731 216L602 287Z" fill="#1b2a33" stroke="#1b2a33"></path><path d="M602 173L598 76L512 138Z" fill="#0d1b25" stroke="#0d1b25"></path><path d="M635 627L722 564L705 479Z" fill="#0d1b25" stroke="#0d1b25"></path><path d="M165 699L315 699L298 610Z" fill="#00101c" stroke="#00101c"></path><path d="M298 610L315 699L364 661Z" fill="#2a3941" stroke="#2a3941"></path><path d="M364 661L431 768L474 662Z" fill="#34444b" stroke="#34444b"></path><path d="M474 662L624 723L635 627Z" fill="#202f38" stroke="#202f38"></path><path d="M163 618L298 610L230 520Z" fill="#11202a" stroke="#11202a"></path><path d="M705 87L598 76L602 173Z" fill="#16252e" stroke="#16252e"></path><path d="M400 89L311 61L267 230Z" fill="#25343c" stroke="#25343c"></path><path d="M384 0L311 61L400 89Z" fill="#071620" stroke="#071620"></path><path d="M0 377L95 477L139 364Z" fill="#202f38" stroke="#202f38"></path><path d="M139 364L95 477L210 373Z" fill="#2f3f46" stroke="#2f3f46"></path><path d="M111 562L163 618L230 520Z" fill="#2f3f46" stroke="#2f3f46"></path><path d="M104 82L95 236L189 220Z" fill="#1b2a33" stroke="#1b2a33"></path><path d="M0 319L0 377L139 364Z" fill="#11202a" stroke="#11202a"></path><path d="M104 82L189 220L217 139Z" fill="#071620" stroke="#071620"></path><path d="M95 477L111 562L230 520Z" fill="#071620" stroke="#071620"></path><path d="M598 76L479 0L512 138Z" fill="#16252e" stroke="#16252e"></path><path d="M479 0L384 0L400 89Z" fill="#00101c" stroke="#00101c"></path><path d="M311 61L215 0L217 139Z" fill="#0d1b25" stroke="#0d1b25"></path><path d="M289 838L431 768L315 699Z" fill="#34444b" stroke="#34444b"></path><path d="M315 699L431 768L364 661Z" fill="#202f38" stroke="#202f38"></path><path d="M722 564L814 481L705 479Z" fill="#1b2a33" stroke="#1b2a33"></path><path d="M764 429L833 311L734 284Z" fill="#202f38" stroke="#202f38"></path><path d="M601 770L624 723L474 662Z" fill="#0d1b25" stroke="#0d1b25"></path><path d="M635 627L735 667L722 564Z" fill="#11202a" stroke="#11202a"></path><path d="M722 564L835 607L814 481Z" fill="#00101c" stroke="#00101c"></path><path d="M731 216L705 87L602 173Z" fill="#071620" stroke="#071620"></path><path d="M598 76L599 0L479 0Z" fill="#1b2a33" stroke="#1b2a33"></path><path d="M804 178L705 87L731 216Z" fill="#2f3f46" stroke="#2f3f46"></path><path d="M900 416L833 311L764 429Z" fill="#25343c" stroke="#25343c"></path><path d="M384 0L283 0L311 61Z" fill="#00101c" stroke="#00101c"></path><path d="M705 87L599 0L598 76Z" fill="#0d1b25" stroke="#0d1b25"></path><path d="M624 723L735 667L635 627Z" fill="#202f38" stroke="#202f38"></path><path d="M833 311L804 178L734 284Z" fill="#25343c" stroke="#25343c"></path><path d="M110 728L165 699L163 618Z" fill="#2a3941" stroke="#2a3941"></path><path d="M163 618L165 699L298 610Z" fill="#1b2a33" stroke="#1b2a33"></path><path d="M505 801L601 770L474 662Z" fill="#202f38" stroke="#202f38"></path><path d="M624 723L725 806L735 667Z" fill="#1b2a33" stroke="#1b2a33"></path><path d="M437 900L505 801L431 768Z" fill="#071620" stroke="#071620"></path><path d="M431 768L505 801L474 662Z" fill="#2a3941" stroke="#2a3941"></path><path d="M0 319L139 364L123 287Z" fill="#0d1b25" stroke="#0d1b25"></path><path d="M95 477L0 511L111 562Z" fill="#1b2a33" stroke="#1b2a33"></path><path d="M0 625L110 728L163 618Z" fill="#0d1b25" stroke="#0d1b25"></path><path d="M283 0L215 0L311 61Z" fill="#25343c" stroke="#25343c"></path><path d="M95 236L0 319L123 287Z" fill="#00101c" stroke="#00101c"></path><path d="M0 187L0 319L95 236Z" fill="#11202a" stroke="#11202a"></path><path d="M215 0L104 82L217 139Z" fill="#16252e" stroke="#16252e"></path><path d="M735 667L835 607L722 564Z" fill="#202f38" stroke="#202f38"></path><path d="M814 481L900 416L764 429Z" fill="#16252e" stroke="#16252e"></path><path d="M900 599L835 607L900 710Z" fill="#11202a" stroke="#11202a"></path><path d="M0 377L0 511L95 477Z" fill="#202f38" stroke="#202f38"></path><path d="M900 506L900 416L814 481Z" fill="#25343c" stroke="#25343c"></path><path d="M833 311L900 171L804 178Z" fill="#202f38" stroke="#202f38"></path><path d="M900 416L900 323L833 311Z" fill="#16252e" stroke="#16252e"></path><path d="M815 94L719 0L705 87Z" fill="#11202a" stroke="#11202a"></path><path d="M705 87L719 0L599 0Z" fill="#16252e" stroke="#16252e"></path><path d="M815 94L705 87L804 178Z" fill="#2f3f46" stroke="#2f3f46"></path><path d="M900 171L815 94L804 178Z" fill="#1b2a33" stroke="#1b2a33"></path><path d="M835 607L900 506L814 481Z" fill="#11202a" stroke="#11202a"></path><path d="M0 625L163 618L111 562Z" fill="#1b2a33" stroke="#1b2a33"></path><path d="M165 699L289 838L315 699Z" fill="#1b2a33" stroke="#1b2a33"></path><path d="M104 82L0 187L95 236Z" fill="#202f38" stroke="#202f38"></path><path d="M161 829L289 838L165 699Z" fill="#0d1b25" stroke="#0d1b25"></path><path d="M0 511L0 625L111 562Z" fill="#34444b" stroke="#34444b"></path><path d="M900 323L900 171L833 311Z" fill="#071620" stroke="#071620"></path><path d="M815 94L824 0L719 0Z" fill="#202f38" stroke="#202f38"></path><path d="M104 82L0 126L0 187Z" fill="#25343c" stroke="#25343c"></path><path d="M0 0L0 126L104 82Z" fill="#0d1b25" stroke="#0d1b25"></path><path d="M823 737L835 607L735 667Z" fill="#2f3f46" stroke="#2f3f46"></path><path d="M835 607L900 599L900 506Z" fill="#11202a" stroke="#11202a"></path><path d="M676 900L725 806L601 770Z" fill="#202f38" stroke="#202f38"></path><path d="M601 770L725 806L624 723Z" fill="#0d1b25" stroke="#0d1b25"></path><path d="M600 900L601 770L505 801Z" fill="#1b2a33" stroke="#1b2a33"></path><path d="M289 838L437 900L431 768Z" fill="#2a3941" stroke="#2a3941"></path><path d="M725 806L770 781L735 667Z" fill="#202f38" stroke="#202f38"></path><path d="M437 900L471 900L505 801Z" fill="#25343c" stroke="#25343c"></path><path d="M215 0L79 0L104 82Z" fill="#34444b" stroke="#34444b"></path><path d="M770 781L823 737L735 667Z" fill="#2f3f46" stroke="#2f3f46"></path><path d="M110 728L161 829L165 699Z" fill="#16252e" stroke="#16252e"></path><path d="M289 838L300 900L437 900Z" fill="#071620" stroke="#071620"></path><path d="M90 807L161 829L110 728Z" fill="#11202a" stroke="#11202a"></path><path d="M233 900L300 900L289 838Z" fill="#11202a" stroke="#11202a"></path><path d="M900 69L824 0L815 94Z" fill="#16252e" stroke="#16252e"></path><path d="M725 806L816 900L770 781Z" fill="#00101c" stroke="#00101c"></path><path d="M471 900L600 900L505 801Z" fill="#2f3f46" stroke="#2f3f46"></path><path d="M0 737L90 807L110 728Z" fill="#00101c" stroke="#00101c"></path><path d="M161 829L233 900L289 838Z" fill="#11202a" stroke="#11202a"></path><path d="M900 171L900 69L815 94Z" fill="#34444b" stroke="#34444b"></path><path d="M129 900L233 900L161 829Z" fill="#202f38" stroke="#202f38"></path><path d="M0 625L0 737L110 728Z" fill="#1b2a33" stroke="#1b2a33"></path><path d="M900 782L823 737L770 781Z" fill="#16252e" stroke="#16252e"></path><path d="M900 782L900 710L823 737Z" fill="#202f38" stroke="#202f38"></path><path d="M823 737L900 710L835 607Z" fill="#202f38" stroke="#202f38"></path><path d="M600 900L676 900L601 770Z" fill="#1b2a33" stroke="#1b2a33"></path><path d="M79 0L0 0L104 82Z" fill="#1b2a33" stroke="#1b2a33"></path><path d="M900 69L900 0L824 0Z" fill="#1b2a33" stroke="#1b2a33"></path><path d="M0 900L129 900L90 807Z" fill="#1b2a33" stroke="#1b2a33"></path><path d="M90 807L129 900L161 829Z" fill="#0d1b25" stroke="#0d1b25"></path><path d="M816 900L900 782L770 781Z" fill="#00101c" stroke="#00101c"></path><path d="M0 737L0 819L90 807Z" fill="#1b2a33" stroke="#1b2a33"></path><path d="M676 900L816 900L725 806Z" fill="#34444b" stroke="#34444b"></path><path d="M0 819L0 900L90 807Z" fill="#2a3941" stroke="#2a3941"></path><path d="M816 900L900 900L900 782Z" fill="#34444b" stroke="#34444b"></path></g></svg>