<svg id="visual" viewBox="0 0 900 600" width="900" height="600" xmlns="http://www.w3.org/2000/svg" xmlns:xlink="http://www.w3.org/1999/xlink" version="1.1"><g stroke-width="1" stroke-linejoin="bevel"><path d="M424 326L432 418L499 368Z" fill="#00ffff" stroke="#00ffff"></path><path d="M499 368L504 265L424 326Z" fill="#0095ae" stroke="#0095ae"></path><path d="M432 418L497 485L499 368Z" fill="#00e4ed" stroke="#00e4ed"></path><path d="M568 271L508 233L504 265Z" fill="#0e384b" stroke="#0e384b"></path><path d="M263 399L364 472L432 418Z" fill="#00aec5" stroke="#00aec5"></path><path d="M432 418L364 472L497 485Z" fill="#0e384b" stroke="#0e384b"></path><path d="M568 271L504 265L499 368Z" fill="#00ffff" stroke="#00ffff"></path><path d="M504 265L384 178L424 326Z" fill="#00ffff" stroke="#00ffff"></path><path d="M633 365L568 271L499 368Z" fill="#00101c" stroke="#00101c"></path><path d="M621 497L633 365L499 368Z" fill="#0095ae" stroke="#0095ae"></path><path d="M384 178L267 336L424 326Z" fill="#00101c" stroke="#00101c"></path><path d="M424 326L263 399L432 418Z" fill="#0095ae" stroke="#0095ae"></path><path d="M267 336L263 399L424 326Z" fill="#00101c" stroke="#00101c"></path><path d="M263 399L323 525L364 472Z" fill="#0b647d" stroke="#0b647d"></path><path d="M368 600L501 600L497 485Z" fill="#00e4ed" stroke="#00e4ed"></path><path d="M508 233L384 178L504 265Z" fill="#00aec5" stroke="#00aec5"></path><path d="M501 600L621 497L497 485Z" fill="#00aec5" stroke="#00aec5"></path><path d="M497 485L621 497L499 368Z" fill="#007c96" stroke="#007c96"></path><path d="M267 336L236 409L263 399Z" fill="#00e4ed" stroke="#00e4ed"></path><path d="M263 399L236 409L323 525Z" fill="#00e4ed" stroke="#00e4ed"></path><path d="M229 220L233 318L267 336Z" fill="#0b647d" stroke="#0b647d"></path><path d="M267 336L233 318L236 409Z" fill="#0e384b" stroke="#0e384b"></path><path d="M683 362L674 328L633 365Z" fill="#007c96" stroke="#007c96"></path><path d="M633 365L674 328L568 271Z" fill="#0a2433" stroke="#0a2433"></path><path d="M568 271L635 198L508 233Z" fill="#0b647d" stroke="#0b647d"></path><path d="M712 480L683 362L633 365Z" fill="#0a2433" stroke="#0a2433"></path><path d="M368 600L497 485L364 472Z" fill="#0095ae" stroke="#0095ae"></path><path d="M322 600L368 600L323 525Z" fill="#00101c" stroke="#00101c"></path><path d="M323 525L368 600L364 472Z" fill="#00ffff" stroke="#00ffff"></path><path d="M674 328L635 198L568 271Z" fill="#0f4d64" stroke="#0f4d64"></path><path d="M508 233L522 61L384 178Z" fill="#007c96" stroke="#007c96"></path><path d="M365 92L296 162L384 178Z" fill="#00ffff" stroke="#00ffff"></path><path d="M384 178L296 162L267 336Z" fill="#00aec5" stroke="#00aec5"></path><path d="M203 600L322 600L323 525Z" fill="#0f4d64" stroke="#0f4d64"></path><path d="M296 162L229 220L267 336Z" fill="#007c96" stroke="#007c96"></path><path d="M64 367L167 488L236 409Z" fill="#0f4d64" stroke="#0f4d64"></path><path d="M635 198L597 139L508 233Z" fill="#0a2433" stroke="#0a2433"></path><path d="M501 600L615 600L621 497Z" fill="#00e4ed" stroke="#00e4ed"></path><path d="M621 497L712 480L633 365Z" fill="#00aec5" stroke="#00aec5"></path><path d="M719 600L712 480L621 497Z" fill="#0f4d64" stroke="#0f4d64"></path><path d="M522 61L365 92L384 178Z" fill="#0a2433" stroke="#0a2433"></path><path d="M296 162L212 117L229 220Z" fill="#0e384b" stroke="#0e384b"></path><path d="M64 367L236 409L233 318Z" fill="#0e384b" stroke="#0e384b"></path><path d="M236 409L167 488L323 525Z" fill="#0b647d" stroke="#0b647d"></path><path d="M365 92L301 100L296 162Z" fill="#00aec5" stroke="#00aec5"></path><path d="M635 198L681 89L597 139Z" fill="#00aec5" stroke="#00aec5"></path><path d="M674 328L722 228L635 198Z" fill="#00c9da" stroke="#00c9da"></path><path d="M779 260L722 228L674 328Z" fill="#0b647d" stroke="#0b647d"></path><path d="M792 362L674 328L683 362Z" fill="#0b647d" stroke="#0b647d"></path><path d="M573 0L522 61L597 139Z" fill="#00c9da" stroke="#00c9da"></path><path d="M597 139L522 61L508 233Z" fill="#00c9da" stroke="#00c9da"></path><path d="M365 92L312 0L301 100Z" fill="#00c9da" stroke="#00c9da"></path><path d="M167 488L203 600L323 525Z" fill="#0e384b" stroke="#0e384b"></path><path d="M712 480L792 362L683 362Z" fill="#00aec5" stroke="#00aec5"></path><path d="M301 100L212 117L296 162Z" fill="#00e4ed" stroke="#00e4ed"></path><path d="M229 220L118 209L233 318Z" fill="#0095ae" stroke="#0095ae"></path><path d="M792 362L779 260L674 328Z" fill="#0f4d64" stroke="#0f4d64"></path><path d="M722 228L681 89L635 198Z" fill="#0a2433" stroke="#0a2433"></path><path d="M615 600L719 600L621 497Z" fill="#007c96" stroke="#007c96"></path><path d="M712 480L825 484L792 362Z" fill="#0f4d64" stroke="#0f4d64"></path><path d="M796 68L681 89L722 228Z" fill="#00c9da" stroke="#00c9da"></path><path d="M212 117L118 209L229 220Z" fill="#00e4ed" stroke="#00e4ed"></path><path d="M573 0L500 0L522 61Z" fill="#00101c" stroke="#00101c"></path><path d="M522 61L500 0L365 92Z" fill="#007c96" stroke="#007c96"></path><path d="M301 100L230 0L212 117Z" fill="#007c96" stroke="#007c96"></path><path d="M500 0L371 0L365 92Z" fill="#0b647d" stroke="#0b647d"></path><path d="M118 209L71 329L233 318Z" fill="#0095ae" stroke="#0095ae"></path><path d="M167 488L74 600L203 600Z" fill="#0b647d" stroke="#0b647d"></path><path d="M71 329L64 367L233 318Z" fill="#0a2433" stroke="#0a2433"></path><path d="M681 89L573 0L597 139Z" fill="#0095ae" stroke="#0095ae"></path><path d="M783 600L825 484L712 480Z" fill="#0095ae" stroke="#0095ae"></path><path d="M792 362L833 236L779 260Z" fill="#007c96" stroke="#007c96"></path><path d="M371 0L312 0L365 92Z" fill="#0e384b" stroke="#0e384b"></path><path d="M212 117L75 126L118 209Z" fill="#007c96" stroke="#007c96"></path><path d="M719 600L783 600L712 480Z" fill="#0095ae" stroke="#0095ae"></path><path d="M779 260L833 236L722 228Z" fill="#0e384b" stroke="#0e384b"></path><path d="M900 335L833 236L792 362Z" fill="#0e384b" stroke="#0e384b"></path><path d="M64 367L66 531L167 488Z" fill="#007c96" stroke="#007c96"></path><path d="M312 0L230 0L301 100Z" fill="#00ffff" stroke="#00ffff"></path><path d="M796 68L685 0L681 89Z" fill="#00e4ed" stroke="#00e4ed"></path><path d="M681 89L685 0L573 0Z" fill="#00101c" stroke="#00101c"></path><path d="M66 531L74 600L167 488Z" fill="#0095ae" stroke="#0095ae"></path><path d="M0 297L0 385L64 367Z" fill="#007c96" stroke="#007c96"></path><path d="M118 209L0 297L71 329Z" fill="#00aec5" stroke="#00aec5"></path><path d="M124 0L75 126L212 117Z" fill="#00e4ed" stroke="#00e4ed"></path><path d="M64 367L0 492L66 531Z" fill="#00101c" stroke="#00101c"></path><path d="M66 531L0 600L74 600Z" fill="#00c9da" stroke="#00c9da"></path><path d="M0 297L64 367L71 329Z" fill="#007c96" stroke="#007c96"></path><path d="M900 498L900 370L825 484Z" fill="#00aec5" stroke="#00aec5"></path><path d="M825 484L900 370L792 362Z" fill="#0a2433" stroke="#0a2433"></path><path d="M900 370L900 335L792 362Z" fill="#00e4ed" stroke="#00e4ed"></path><path d="M833 236L796 68L722 228Z" fill="#0095ae" stroke="#0095ae"></path><path d="M0 163L0 297L118 209Z" fill="#0e384b" stroke="#0e384b"></path><path d="M900 205L796 68L833 236Z" fill="#0f4d64" stroke="#0f4d64"></path><path d="M0 385L0 492L64 367Z" fill="#00c9da" stroke="#00c9da"></path><path d="M900 600L900 498L825 484Z" fill="#0a2433" stroke="#0a2433"></path><path d="M900 335L900 205L833 236Z" fill="#00ffff" stroke="#00ffff"></path><path d="M230 0L124 0L212 117Z" fill="#00e4ed" stroke="#00e4ed"></path><path d="M75 126L0 163L118 209Z" fill="#00e4ed" stroke="#00e4ed"></path><path d="M0 64L0 163L75 126Z" fill="#0a2433" stroke="#0a2433"></path><path d="M0 492L0 600L66 531Z" fill="#00101c" stroke="#00101c"></path><path d="M783 600L900 600L825 484Z" fill="#00e4ed" stroke="#00e4ed"></path><path d="M900 0L797 0L796 68Z" fill="#0095ae" stroke="#0095ae"></path><path d="M796 68L797 0L685 0Z" fill="#0f4d64" stroke="#0f4d64"></path><path d="M900 205L900 75L796 68Z" fill="#0f4d64" stroke="#0f4d64"></path><path d="M124 0L0 64L75 126Z" fill="#0a2433" stroke="#0a2433"></path><path d="M124 0L0 0L0 64Z" fill="#0a2433" stroke="#0a2433"></path><path d="M900 75L900 0L796 68Z" fill="#00aec5" stroke="#00aec5"></path></g></svg>